<svg id="visual" viewBox="0 0 900 600" width="900" height="600" xmlns="http://www.w3.org/2000/svg" xmlns:xlink="http://www.w3.org/1999/xlink" version="1.1"><rect x="0" y="0" width="900" height="600" fill="#002233"></rect><path d="M327 0L302.8 14.3C278.7 28.7 230.3 57.3 202.5 85.8C174.7 114.3 167.3 142.7 184.5 171.2C201.7 199.7 243.3 228.3 263.8 257C284.3 285.7 283.7 314.3 276.7 343C269.7 371.7 256.3 400.3 235.3 428.8C214.3 457.3 185.7 485.7 165.2 514.2C144.7 542.7 132.3 571.3 126.2 585.7L120 600L0 600L0 585.7C0 571.3 0 542.7 0 514.2C0 485.7 0 457.3 0 428.8C0 400.3 0 371.7 0 343C0 314.3 0 285.7 0 257C0 228.3 0 199.7 0 171.2C0 142.7 0 114.3 0 85.8C0 57.3 0 28.7 0 14.3L0 0Z" fill="#8b00ff" stroke-linecap="round" stroke-linejoin="miter"></path></svg>